<?xml version="1.0" encoding="UTF-8" standalone="no"?>
<svg
   xmlns:dc="http://purl.org/dc/elements/1.1/"
   xmlns:cc="http://creativecommons.org/ns#"
   xmlns:rdf="http://www.w3.org/1999/02/22-rdf-syntax-ns#"
   xmlns:svg="http://www.w3.org/2000/svg"
   xmlns="http://www.w3.org/2000/svg"
   xmlns:sodipodi="http://sodipodi.sourceforge.net/DTD/sodipodi-0.dtd"
   xmlns:inkscape="http://www.inkscape.org/namespaces/inkscape"
   width="64"
   height="64"
   version="1"
   id="svg12"
   sodipodi:docname="continue-spotify.svg"
   inkscape:version="1.0.1 (3bc2e813f5, 2020-09-07)">
  <metadata
     id="metadata18">
    <rdf:RDF>
      <cc:Work
         rdf:about="">
        <dc:format>image/svg+xml</dc:format>
        <dc:type
           rdf:resource="http://purl.org/dc/dcmitype/StillImage" />
        <dc:title></dc:title>
      </cc:Work>
    </rdf:RDF>
  </metadata>
  <defs
     id="defs16" />
  <sodipodi:namedview
     pagecolor="#ffffff"
     bordercolor="#666666"
     borderopacity="1"
     objecttolerance="10"
     gridtolerance="10"
     guidetolerance="10"
     inkscape:pageopacity="0"
     inkscape:pageshadow="2"
     inkscape:window-width="1920"
     inkscape:window-height="1049"
     id="namedview14"
     showgrid="false"
     inkscape:zoom="11.171875"
     inkscape:cx="31.835958"
     inkscape:cy="34.666592"
     inkscape:window-x="0"
     inkscape:window-y="31"
     inkscape:window-maximized="1"
     inkscape:current-layer="svg12"
     inkscape:document-rotation="0" />
  <path
     style="opacity:0.2"
     d="M 4.0508,31 C 4.039,31.334 4,31.662 4,32 4,47.512 16.488,60 32,60 47.512,60 60,47.512 60,32 c 0,-0.33768 -0.03904,-0.66528 -0.05078,-1 -0.528,15.042 -12.776,27 -27.95,27 -15.1744,0 -27.422,-11.958 -27.95,-27 z"
     id="path2" />
  <rect
     style="fill:#daa522;fill-opacity:1;stroke-width:1.14068"
     width="63.807854"
     height="63.947582"
     x="-63.918427"
     y="-63.939556"
     rx="31.903927"
     ry="31.973791"
     transform="matrix(0,-1,-1,0,0,0)"
     id="rect4" />
  <path
     style="opacity:0.2;fill:#ffffff;stroke-width:1.11967"
     d="m 31.773147,0.28368276 c -17.745701,0 -32.031951,13.68511524 -32.031951,30.68411424 0,0.124323 0.0129048,0.245597 0.0201087,0.368141 C 0.16347012,14.676922 14.282247,1.379544 31.773147,1.379544 h 0.0023 c 17.490901,0 31.609677,13.297378 32.011842,29.956394 0.0072,-0.122544 0.02011,-0.243818 0.02011,-0.368141 0,-16.998999 -14.28625,-30.68411424 -32.031951,-30.68411424 z"
     id="path6" />
  <path
     style="opacity:0.2;stroke-width:1.34358"
     d="m 26.885816,13.822853 c -4.250356,-6.13e-4 -8.360127,0.500428 -11.864207,1.500765 -1.799928,0.513856 -1.933598,0.573762 -2.434162,1.058053 -0.615889,0.595948 -0.880619,1.250047 -0.880995,2.191139 -5.03e-4,1.165387 0.483774,2.064064 1.396545,2.58132 0.747252,0.423407 1.231477,0.408509 2.864811,-0.06754 1.651827,-0.481352 3.992993,-0.943168 6.043117,-1.193108 2.084682,-0.253946 8.663849,-0.21176 10.767851,0.06753 5.70331,0.757628 9.768224,2.00387 13.704583,4.20207 1.007145,0.562438 2.005192,1.069779 2.218825,1.125566 1.126777,0.296474 2.468569,-0.496884 2.936731,-1.733387 0.23308,-0.615573 0.212104,-1.74863 -0.03918,-2.356219 C 51.289379,20.448184 50.655347,19.910643 48.96974,18.970387 46.106185,17.372948 43.024858,16.172204 39.585431,15.323578 35.527032,14.322175 31.136344,13.82342 26.885988,13.822814 Z m -1.701947,11.537179 c -0.756674,0.01268 -1.409,0.04253 -1.850098,0.09381 -2.858296,0.331458 -6.568116,1.235841 -7.746168,1.890974 -1.239396,0.689165 -1.677237,2.905 -0.91362,4.324332 0.29267,0.544054 1.166823,1.148099 1.664106,1.148099 0.187395,0 1.087886,-0.241123 2.003463,-0.532786 2.67085,-0.850932 4.459603,-1.128966 7.720104,-1.20063 2.11365,-0.04575 3.970314,-0.0065 5.202995,0.157559 5.234696,0.695245 9.835045,1.878888 14.273347,4.883009 0.610277,0.412889 1.240551,0.750829 1.403085,0.750397 1.321143,-0.0034 2.47075,-1.879737 2.244913,-3.3939 -0.197344,-1.322486 -0.692371,-1.875213 -2.962794,-3.331573 -3.759688,-2.411947 -8.637948,-3.669614 -13.54261,-4.500347 -0.840272,-0.142115 -2.550313,-0.238097 -4.267897,-0.27763 -0.858842,-0.02017 -2.472328,-0.02391 -3.229002,-0.01157 z m 2.784859,11.52538 c -0.606316,0.01268 -1.128458,0.04311 -1.481397,0.09434 -2.286511,0.331456 -5.256998,1.235838 -6.19974,1.890975 -0.991558,0.689163 -1.34174,2.904824 -0.730912,4.3241 0.234155,0.544053 0.933469,1.148098 1.33129,1.148098 0.149906,0 0.872925,-0.241121 1.605366,-0.532786 2.136681,-0.850903 3.564975,-1.128995 6.173428,-1.200629 1.69082,-0.04573 1.7093,-0.0065 2.695645,0.15756 4.187707,0.695244 6.512208,1.878988 10.062901,4.883108 0.48816,0.41289 0.999101,0.7508 1.128983,0.750397 1.056989,-0.0034 1.969157,-1.592367 1.788101,-3.106529 -0.157849,-1.322487 -0.546022,-1.875213 -2.362392,-3.331573 -3.0079,-2.411947 -5.558439,-3.956856 -9.482018,-4.787588 -0.672323,-0.142115 -2.038872,-0.238673 -3.413113,-0.278178 -0.687059,-0.02017 -0.509977,-0.02391 -1.116317,-0.01157 z"
     id="path8" />
  <path
     style="fill:#ffffff;stroke-width:1.44542"
     d="m 26.802085,11.720583 c -4.684723,-6.44e-4 -9.214493,0.525462 -13.076676,1.575842 -1.983873,0.539561 -2.131201,0.602463 -2.682923,1.110982 -0.67883,0.625761 -0.970612,1.312579 -0.971027,2.300752 -5.54e-4,1.223687 0.533216,2.167322 1.539267,2.710453 0.823616,0.444586 1.357329,0.428944 3.157581,-0.07092 1.820636,-0.505432 4.401059,-0.99035 6.660696,-1.252794 2.297725,-0.266649 9.549254,-0.222352 11.868275,0.07093 6.286163,0.79553 10.766491,2.104118 15.105128,4.412281 1.110072,0.590574 2.210114,1.123297 2.445579,1.181874 1.241931,0.311307 2.720847,-0.52174 3.236853,-1.820101 0.256899,-0.646366 0.233779,-1.836106 -0.04317,-2.474091 -0.342083,-0.788418 -1.040911,-1.352851 -2.89878,-2.340144 -3.156201,-1.677352 -6.552422,-2.938164 -10.343344,-3.829242 -4.473149,-1.0515 -9.312546,-1.575206 -13.997269,-1.575842 z m -1.875877,12.114334 c -0.834003,0.0133 -1.552994,0.04466 -2.039171,0.09848 -3.150401,0.348038 -7.239346,1.297664 -8.537789,1.985571 -1.366058,0.723642 -1.848643,3.050323 -1.006991,4.54066 0.322581,0.57127 1.286069,1.205534 1.834171,1.205534 0.206546,0 1.199063,-0.253187 2.208209,-0.55944 2.943799,-0.8935 4.915352,-1.185444 8.509062,-1.260691 2.329656,-0.04806 4.376063,-0.0066 5.734718,0.165441 5.769657,0.730024 10.840142,1.97288 15.732018,5.127283 0.672644,0.433545 1.367327,0.78839 1.546474,0.787938 1.456157,-0.0037 2.723249,-1.973772 2.474334,-3.563684 -0.217514,-1.388644 -0.763129,-1.969022 -3.26558,-3.498236 -4.14391,-2.532607 -9.520708,-3.85319 -14.926602,-4.72548 -0.926145,-0.149225 -2.810943,-0.250008 -4.704057,-0.291521 -0.946611,-0.02118 -2.724987,-0.0251 -3.558992,-0.0121 z m 3.069457,12.101943 c -0.668279,0.0133 -1.243782,0.04528 -1.632788,0.09905 -2.520183,0.348037 -5.79424,1.297661 -6.833325,1.98557 -1.092889,0.723643 -1.478861,3.050142 -0.80561,4.540418 0.258087,0.571269 1.028866,1.205532 1.467343,1.205532 0.165225,0 0.962133,-0.253185 1.769427,-0.559438 2.355039,-0.893471 3.9293,-1.185476 6.804323,-1.260691 1.863615,-0.04801 1.883985,-0.0066 2.971129,0.16544 4.615672,0.730026 7.177727,1.972985 11.091281,5.127391 0.53805,0.433543 1.101204,0.788359 1.244362,0.787935 1.165007,-0.0037 2.170396,-1.672026 1.970836,-3.261936 -0.17398,-1.388644 -0.601823,-1.969021 -2.603816,-3.498236 -3.315295,-2.532608 -6.126486,-4.1548 -10.451036,-5.02709 C 32.246759,36.091579 30.740554,35.99019 29.22587,35.94871 28.468599,35.92753 28.66378,35.9236 27.995472,35.93661 Z"
     id="path10" />
</svg>
